<?xml version="1.0" standalone="no"?>
<!DOCTYPE svg PUBLIC "-//W3C//DTD SVG 20010904//EN"
 "http://www.w3.org/TR/2001/REC-SVG-20010904/DTD/svg10.dtd">
<svg version="1.0" xmlns="http://www.w3.org/2000/svg"
 width="182.000000pt" height="218.000000pt" viewBox="0 0 182.000000 218.000000"
 preserveAspectRatio="xMidYMid meet">

<g transform="translate(0.000000,218.000000) scale(0.100000,-0.100000)"
fill="#000000" stroke="none">
<path d="M0 1090 l0 -1090 910 0 910 0 0 265 c0 146 -2 265 -4 265 -13 0 -61
-102 -67 -144 -5 -27 -10 -50 -12 -53 -3 -2 -39 -3 -81 -1 l-76 3 56 45 c32
25 86 81 121 125 l63 79 0 551 0 551 -63 79 c-70 89 -158 164 -257 219 l-65
36 193 0 192 0 0 80 0 80 -910 0 -910 0 0 -1090z m380 895 c-36 -19 -100 -64
-142 -100 l-78 -65 0 100 0 100 143 0 142 -1 -65 -34z m780 5 c227 -55 430
-211 533 -409 125 -239 125 -573 0 -812 -109 -210 -313 -359 -566 -415 -89
-20 -327 -23 -412 -5 -278 58 -483 208 -599 440 -50 99 -76 204 -83 336 -6
133 8 240 46 352 42 121 84 186 191 294 84 85 107 102 200 147 162 80 275 103
475 97 85 -3 159 -11 215 -25z m-861 -1656 c2 -2 -28 -4 -67 -4 l-72 0 0 60 0
61 68 -57 c37 -31 69 -59 71 -60z"/>
<path d="M683 1703 c-26 -5 -75 -59 -102 -111 -33 -65 -70 -199 -82 -294 -43
-355 154 -607 504 -647 48 -6 94 -8 102 -5 10 4 -5 28 -51 82 -90 108 -189
305 -253 509 -70 222 -81 262 -72 267 4 3 14 -14 20 -37 22 -72 120 -309 158
-377 19 -36 65 -108 103 -160 37 -52 87 -135 112 -184 l45 -89 25 34 c37 49
62 103 93 199 22 69 28 110 32 215 4 81 1 151 -6 187 -39 185 -198 342 -396
391 -65 16 -196 28 -232 20z m296 -227 c130 -66 229 -209 238 -343 5 -68 -11
-183 -26 -183 -10 0 -76 93 -121 169 -33 57 -144 310 -156 355 -8 33 3 33 65
2z m-270 -366 c18 -58 44 -131 56 -162 27 -65 20 -73 -21 -25 -50 60 -77 134
-82 227 -3 54 -1 81 5 75 6 -5 25 -57 42 -115z"/>
</g>
</svg>
